<mxfile host="app.diagrams.net" modified="2023-05-15T03:52:59.343Z" agent="Mozilla/5.0 (Windows NT 10.0; Win64; x64) AppleWebKit/537.36 (KHTML, like Gecko) Chrome/113.0.0.0 Safari/537.36" etag="BkMlFvZleRmh1gNFyYEE" version="21.3.0" type="github" pages="2">
  <diagram id="prtHgNgQTEPvFCAcTncT" name="Login">
    <mxGraphModel dx="1122" dy="734" grid="1" gridSize="10" guides="1" tooltips="1" connect="1" arrows="1" fold="1" page="1" pageScale="1" pageWidth="827" pageHeight="1169" math="0" shadow="0">
      <root>
        <mxCell id="0" />
        <mxCell id="1" parent="0" />
        <mxCell id="dNxyNK7c78bLwvsdeMH5-19" value="Login" style="swimlane;html=1;childLayout=stackLayout;resizeParent=1;resizeParentMax=0;horizontal=0;startSize=20;horizontalStack=0;" parent="1" vertex="1">
          <mxGeometry width="830" height="600" as="geometry" />
        </mxCell>
        <mxCell id="dNxyNK7c78bLwvsdeMH5-20" value="Pengguna" style="swimlane;html=1;startSize=20;horizontal=0;" parent="dNxyNK7c78bLwvsdeMH5-19" vertex="1">
          <mxGeometry x="20" width="810" height="200" as="geometry" />
        </mxCell>
        <mxCell id="dNxyNK7c78bLwvsdeMH5-25" value="" style="edgeStyle=orthogonalEdgeStyle;rounded=0;orthogonalLoop=1;jettySize=auto;html=1;" parent="dNxyNK7c78bLwvsdeMH5-20" source="dNxyNK7c78bLwvsdeMH5-23" target="0UpXjL1naKXy_ICUsYwm-1" edge="1">
          <mxGeometry relative="1" as="geometry">
            <mxPoint x="170" y="75" as="targetPoint" />
          </mxGeometry>
        </mxCell>
        <mxCell id="dNxyNK7c78bLwvsdeMH5-23" value="User membuka link eKasir" style="ellipse;whiteSpace=wrap;html=1;fillColor=#f5f5f5;fontColor=#333333;strokeColor=#666666;" parent="dNxyNK7c78bLwvsdeMH5-20" vertex="1">
          <mxGeometry x="40" y="40" width="70" height="70" as="geometry" />
        </mxCell>
        <mxCell id="0UpXjL1naKXy_ICUsYwm-1" value="User Menginputkan Username &amp;amp; Pass&lt;br&gt;lalu Login" style="shape=parallelogram;perimeter=parallelogramPerimeter;whiteSpace=wrap;html=1;fixedSize=1;fillColor=#fff2cc;strokeColor=#d6b656;" vertex="1" parent="dNxyNK7c78bLwvsdeMH5-20">
          <mxGeometry x="150" y="45" width="140" height="60" as="geometry" />
        </mxCell>
        <mxCell id="0UpXjL1naKXy_ICUsYwm-22" value="Anda Berhasil Login" style="ellipse;whiteSpace=wrap;html=1;aspect=fixed;fillColor=#f5f5f5;fontColor=#333333;strokeColor=#666666;" vertex="1" parent="dNxyNK7c78bLwvsdeMH5-20">
          <mxGeometry x="590" y="45" width="80" height="80" as="geometry" />
        </mxCell>
        <mxCell id="dNxyNK7c78bLwvsdeMH5-21" value="Sistem" style="swimlane;html=1;startSize=20;horizontal=0;" parent="dNxyNK7c78bLwvsdeMH5-19" vertex="1">
          <mxGeometry x="20" y="200" width="810" height="200" as="geometry" />
        </mxCell>
        <mxCell id="0UpXjL1naKXy_ICUsYwm-4" value="" style="edgeStyle=orthogonalEdgeStyle;rounded=0;orthogonalLoop=1;jettySize=auto;html=1;" edge="1" parent="dNxyNK7c78bLwvsdeMH5-21" source="0UpXjL1naKXy_ICUsYwm-2" target="0UpXjL1naKXy_ICUsYwm-3">
          <mxGeometry relative="1" as="geometry" />
        </mxCell>
        <mxCell id="0UpXjL1naKXy_ICUsYwm-2" value="Sistem memvalidasi username dan password" style="rounded=0;whiteSpace=wrap;html=1;fillColor=#e1d5e7;strokeColor=#9673a6;" vertex="1" parent="dNxyNK7c78bLwvsdeMH5-21">
          <mxGeometry x="60" y="60" width="120" height="60" as="geometry" />
        </mxCell>
        <mxCell id="0UpXjL1naKXy_ICUsYwm-9" value="" style="edgeStyle=orthogonalEdgeStyle;rounded=0;orthogonalLoop=1;jettySize=auto;html=1;exitX=1;exitY=0.5;exitDx=0;exitDy=0;" edge="1" parent="dNxyNK7c78bLwvsdeMH5-21" source="0UpXjL1naKXy_ICUsYwm-3" target="0UpXjL1naKXy_ICUsYwm-8">
          <mxGeometry relative="1" as="geometry">
            <mxPoint x="295" y="50" as="sourcePoint" />
          </mxGeometry>
        </mxCell>
        <mxCell id="0UpXjL1naKXy_ICUsYwm-10" value="Tidak" style="edgeLabel;html=1;align=center;verticalAlign=middle;resizable=0;points=[];" vertex="1" connectable="0" parent="0UpXjL1naKXy_ICUsYwm-9">
          <mxGeometry x="-0.298" y="-1" relative="1" as="geometry">
            <mxPoint y="-9" as="offset" />
          </mxGeometry>
        </mxCell>
        <mxCell id="0UpXjL1naKXy_ICUsYwm-3" value="Apakah &lt;br&gt;Valid?" style="rhombus;whiteSpace=wrap;html=1;fillColor=#dae8fc;strokeColor=#6c8ebf;" vertex="1" parent="dNxyNK7c78bLwvsdeMH5-21">
          <mxGeometry x="230" y="50" width="80" height="80" as="geometry" />
        </mxCell>
        <mxCell id="0UpXjL1naKXy_ICUsYwm-8" value="Menampilkan Info&lt;br&gt;username atau password tidak boleh kosong" style="shape=parallelogram;perimeter=parallelogramPerimeter;whiteSpace=wrap;html=1;fixedSize=1;fillColor=#f8cecc;strokeColor=#b85450;" vertex="1" parent="dNxyNK7c78bLwvsdeMH5-21">
          <mxGeometry x="355" y="20" width="160" height="60" as="geometry" />
        </mxCell>
        <mxCell id="0UpXjL1naKXy_ICUsYwm-16" value="Menampilkan Info&lt;br&gt;username atau password salah" style="shape=parallelogram;perimeter=parallelogramPerimeter;whiteSpace=wrap;html=1;fixedSize=1;fillColor=#f8cecc;strokeColor=#b85450;" vertex="1" parent="dNxyNK7c78bLwvsdeMH5-21">
          <mxGeometry x="350" y="100" width="160" height="60" as="geometry" />
        </mxCell>
        <mxCell id="0UpXjL1naKXy_ICUsYwm-19" value="Menampilkan Halaman utama" style="shape=parallelogram;perimeter=parallelogramPerimeter;whiteSpace=wrap;html=1;fixedSize=1;fillColor=#d5e8d4;strokeColor=#82b366;" vertex="1" parent="dNxyNK7c78bLwvsdeMH5-21">
          <mxGeometry x="530" y="60" width="160" height="60" as="geometry" />
        </mxCell>
        <mxCell id="0UpXjL1naKXy_ICUsYwm-7" value="" style="endArrow=classic;html=1;rounded=0;entryX=0.5;entryY=0;entryDx=0;entryDy=0;" edge="1" parent="dNxyNK7c78bLwvsdeMH5-19" source="0UpXjL1naKXy_ICUsYwm-1" target="0UpXjL1naKXy_ICUsYwm-2">
          <mxGeometry width="50" height="50" relative="1" as="geometry">
            <mxPoint x="240" y="110" as="sourcePoint" />
            <mxPoint x="240" y="180" as="targetPoint" />
            <Array as="points">
              <mxPoint x="240" y="160" />
              <mxPoint x="140" y="160" />
            </Array>
          </mxGeometry>
        </mxCell>
        <mxCell id="0UpXjL1naKXy_ICUsYwm-12" value="" style="endArrow=classic;html=1;rounded=0;exitX=0.5;exitY=1;exitDx=0;exitDy=0;entryX=0.477;entryY=-0.055;entryDx=0;entryDy=0;entryPerimeter=0;" edge="1" parent="dNxyNK7c78bLwvsdeMH5-19" source="0UpXjL1naKXy_ICUsYwm-3" target="0UpXjL1naKXy_ICUsYwm-11">
          <mxGeometry width="50" height="50" relative="1" as="geometry">
            <mxPoint x="270" y="450" as="sourcePoint" />
            <mxPoint x="320" y="400" as="targetPoint" />
            <Array as="points">
              <mxPoint x="290" y="360" />
              <mxPoint x="137" y="360" />
            </Array>
          </mxGeometry>
        </mxCell>
        <mxCell id="0UpXjL1naKXy_ICUsYwm-13" value="Ya" style="edgeLabel;html=1;align=center;verticalAlign=middle;resizable=0;points=[];" vertex="1" connectable="0" parent="0UpXjL1naKXy_ICUsYwm-12">
          <mxGeometry x="-0.3309" y="1" relative="1" as="geometry">
            <mxPoint as="offset" />
          </mxGeometry>
        </mxCell>
        <mxCell id="0UpXjL1naKXy_ICUsYwm-17" value="" style="endArrow=classic;html=1;rounded=0;exitX=0.5;exitY=0;exitDx=0;exitDy=0;entryX=0;entryY=0.5;entryDx=0;entryDy=0;" edge="1" parent="dNxyNK7c78bLwvsdeMH5-19" source="0UpXjL1naKXy_ICUsYwm-14" target="0UpXjL1naKXy_ICUsYwm-16">
          <mxGeometry width="50" height="50" relative="1" as="geometry">
            <mxPoint x="360" y="370" as="sourcePoint" />
            <mxPoint x="410" y="320" as="targetPoint" />
            <Array as="points">
              <mxPoint x="350" y="450" />
              <mxPoint x="350" y="330" />
            </Array>
          </mxGeometry>
        </mxCell>
        <mxCell id="0UpXjL1naKXy_ICUsYwm-18" value="Tidak" style="edgeLabel;html=1;align=center;verticalAlign=middle;resizable=0;points=[];" vertex="1" connectable="0" parent="0UpXjL1naKXy_ICUsYwm-17">
          <mxGeometry x="0.0702" relative="1" as="geometry">
            <mxPoint as="offset" />
          </mxGeometry>
        </mxCell>
        <mxCell id="dNxyNK7c78bLwvsdeMH5-22" value="Database" style="swimlane;html=1;startSize=20;horizontal=0;" parent="dNxyNK7c78bLwvsdeMH5-19" vertex="1">
          <mxGeometry x="20" y="400" width="810" height="200" as="geometry" />
        </mxCell>
        <mxCell id="0UpXjL1naKXy_ICUsYwm-15" value="" style="edgeStyle=orthogonalEdgeStyle;rounded=0;orthogonalLoop=1;jettySize=auto;html=1;" edge="1" parent="dNxyNK7c78bLwvsdeMH5-22" source="0UpXjL1naKXy_ICUsYwm-11" target="0UpXjL1naKXy_ICUsYwm-14">
          <mxGeometry relative="1" as="geometry" />
        </mxCell>
        <mxCell id="0UpXjL1naKXy_ICUsYwm-11" value="Cek username dan password" style="rounded=0;whiteSpace=wrap;html=1;fillColor=#e1d5e7;strokeColor=#9673a6;" vertex="1" parent="dNxyNK7c78bLwvsdeMH5-22">
          <mxGeometry x="60" y="60" width="120" height="60" as="geometry" />
        </mxCell>
        <mxCell id="0UpXjL1naKXy_ICUsYwm-14" value="Apakah Cocok?" style="rhombus;whiteSpace=wrap;html=1;fillColor=#dae8fc;strokeColor=#6c8ebf;" vertex="1" parent="dNxyNK7c78bLwvsdeMH5-22">
          <mxGeometry x="290" y="50" width="80" height="80" as="geometry" />
        </mxCell>
        <mxCell id="0UpXjL1naKXy_ICUsYwm-20" value="" style="endArrow=classic;html=1;rounded=0;exitX=1;exitY=0.5;exitDx=0;exitDy=0;entryX=0.5;entryY=1;entryDx=0;entryDy=0;" edge="1" parent="dNxyNK7c78bLwvsdeMH5-19" source="0UpXjL1naKXy_ICUsYwm-14" target="0UpXjL1naKXy_ICUsYwm-19">
          <mxGeometry width="50" height="50" relative="1" as="geometry">
            <mxPoint x="490" y="370" as="sourcePoint" />
            <mxPoint x="540" y="320" as="targetPoint" />
            <Array as="points">
              <mxPoint x="630" y="490" />
            </Array>
          </mxGeometry>
        </mxCell>
        <mxCell id="0UpXjL1naKXy_ICUsYwm-21" value="Ya" style="edgeLabel;html=1;align=center;verticalAlign=middle;resizable=0;points=[];" vertex="1" connectable="0" parent="0UpXjL1naKXy_ICUsYwm-20">
          <mxGeometry x="-0.2424" y="-2" relative="1" as="geometry">
            <mxPoint as="offset" />
          </mxGeometry>
        </mxCell>
      </root>
    </mxGraphModel>
  </diagram>
  <diagram name="Master User Role" id="0RF9UuGps7cqXFhsu12t">
    <mxGraphModel dx="1193" dy="780" grid="1" gridSize="10" guides="1" tooltips="1" connect="1" arrows="1" fold="1" page="1" pageScale="1" pageWidth="827" pageHeight="1169" math="0" shadow="0">
      <root>
        <mxCell id="32sQWci2aeUVK-o_euO9-0" />
        <mxCell id="32sQWci2aeUVK-o_euO9-1" parent="32sQWci2aeUVK-o_euO9-0" />
        <mxCell id="32sQWci2aeUVK-o_euO9-2" value="Login" style="swimlane;html=1;childLayout=stackLayout;resizeParent=1;resizeParentMax=0;horizontal=0;startSize=20;horizontalStack=0;" vertex="1" parent="32sQWci2aeUVK-o_euO9-1">
          <mxGeometry width="1230" height="680" as="geometry" />
        </mxCell>
        <mxCell id="32sQWci2aeUVK-o_euO9-3" value="Pengguna" style="swimlane;html=1;startSize=20;horizontal=0;" vertex="1" parent="32sQWci2aeUVK-o_euO9-2">
          <mxGeometry x="20" width="1210" height="260" as="geometry" />
        </mxCell>
        <mxCell id="32sQWci2aeUVK-o_euO9-4" value="" style="edgeStyle=orthogonalEdgeStyle;rounded=0;orthogonalLoop=1;jettySize=auto;html=1;" edge="1" parent="32sQWci2aeUVK-o_euO9-3" source="32sQWci2aeUVK-o_euO9-5" target="32sQWci2aeUVK-o_euO9-6">
          <mxGeometry relative="1" as="geometry">
            <mxPoint x="170" y="75" as="targetPoint" />
          </mxGeometry>
        </mxCell>
        <mxCell id="32sQWci2aeUVK-o_euO9-5" value="User Memilih menu user role" style="ellipse;whiteSpace=wrap;html=1;fillColor=#f5f5f5;fontColor=#333333;strokeColor=#666666;" vertex="1" parent="32sQWci2aeUVK-o_euO9-3">
          <mxGeometry x="40" y="40" width="70" height="70" as="geometry" />
        </mxCell>
        <mxCell id="fUxP4xnm1Di0LJo4FKwc-1" value="" style="edgeStyle=orthogonalEdgeStyle;rounded=0;orthogonalLoop=1;jettySize=auto;html=1;" edge="1" parent="32sQWci2aeUVK-o_euO9-3" source="32sQWci2aeUVK-o_euO9-6" target="fUxP4xnm1Di0LJo4FKwc-0">
          <mxGeometry relative="1" as="geometry" />
        </mxCell>
        <mxCell id="32sQWci2aeUVK-o_euO9-6" value="Menampilkan &lt;br&gt;menu Index &lt;br&gt;Master User Role" style="shape=parallelogram;perimeter=parallelogramPerimeter;whiteSpace=wrap;html=1;fixedSize=1;fillColor=#fff2cc;strokeColor=#d6b656;" vertex="1" parent="32sQWci2aeUVK-o_euO9-3">
          <mxGeometry x="150" y="45" width="140" height="60" as="geometry" />
        </mxCell>
        <mxCell id="32sQWci2aeUVK-o_euO9-7" value="Data Berhasil Disimpan" style="ellipse;whiteSpace=wrap;html=1;aspect=fixed;fillColor=#f5f5f5;fontColor=#333333;strokeColor=#666666;" vertex="1" parent="32sQWci2aeUVK-o_euO9-3">
          <mxGeometry x="1110" y="80" width="80" height="80" as="geometry" />
        </mxCell>
        <mxCell id="fUxP4xnm1Di0LJo4FKwc-0" value="Pilihan Menu" style="rhombus;whiteSpace=wrap;html=1;fillColor=#dae8fc;strokeColor=#6c8ebf;" vertex="1" parent="32sQWci2aeUVK-o_euO9-3">
          <mxGeometry x="330" y="125" width="80" height="80" as="geometry" />
        </mxCell>
        <mxCell id="fUxP4xnm1Di0LJo4FKwc-5" value="&lt;br style=&quot;border-color: var(--border-color);&quot;&gt;Meneginputkan/Memperbaharui data-data terkait master User Role&lt;span style=&quot;background-color: rgb(195, 171, 208);&quot;&gt;&lt;br&gt;&lt;/span&gt;" style="rounded=0;whiteSpace=wrap;html=1;fillColor=#e1d5e7;strokeColor=#9673a6;" vertex="1" parent="32sQWci2aeUVK-o_euO9-3">
          <mxGeometry x="540" y="105" width="196" height="90" as="geometry" />
        </mxCell>
        <mxCell id="SK0z5Y7LurTOedyzjgcK-1" value="" style="endArrow=classic;html=1;rounded=0;exitX=0.5;exitY=1;exitDx=0;exitDy=0;" edge="1" parent="32sQWci2aeUVK-o_euO9-3" source="KCNRwQGQ5qcpqjG1OJTr-0">
          <mxGeometry width="50" height="50" relative="1" as="geometry">
            <mxPoint x="130" y="155" as="sourcePoint" />
            <mxPoint x="180" y="105" as="targetPoint" />
            <Array as="points">
              <mxPoint x="1010" y="640" />
              <mxPoint x="180" y="640" />
            </Array>
          </mxGeometry>
        </mxCell>
        <mxCell id="32sQWci2aeUVK-o_euO9-18" value="" style="endArrow=classic;html=1;rounded=0;exitX=0.5;exitY=1;exitDx=0;exitDy=0;entryX=0.477;entryY=-0.055;entryDx=0;entryDy=0;entryPerimeter=0;" edge="1" parent="32sQWci2aeUVK-o_euO9-2" source="32sQWci2aeUVK-o_euO9-13" target="32sQWci2aeUVK-o_euO9-24">
          <mxGeometry width="50" height="50" relative="1" as="geometry">
            <mxPoint x="750" y="460" as="sourcePoint" />
            <mxPoint x="800" y="410" as="targetPoint" />
            <Array as="points">
              <mxPoint x="770" y="460" />
              <mxPoint x="617" y="460" />
            </Array>
          </mxGeometry>
        </mxCell>
        <mxCell id="32sQWci2aeUVK-o_euO9-19" value="Ya" style="edgeLabel;html=1;align=center;verticalAlign=middle;resizable=0;points=[];" vertex="1" connectable="0" parent="32sQWci2aeUVK-o_euO9-18">
          <mxGeometry x="-0.3309" y="1" relative="1" as="geometry">
            <mxPoint as="offset" />
          </mxGeometry>
        </mxCell>
        <mxCell id="32sQWci2aeUVK-o_euO9-20" value="" style="endArrow=classic;html=1;rounded=0;exitX=0.5;exitY=0;exitDx=0;exitDy=0;entryX=0;entryY=0.5;entryDx=0;entryDy=0;" edge="1" parent="32sQWci2aeUVK-o_euO9-2" source="32sQWci2aeUVK-o_euO9-25" target="32sQWci2aeUVK-o_euO9-15">
          <mxGeometry width="50" height="50" relative="1" as="geometry">
            <mxPoint x="840" y="380" as="sourcePoint" />
            <mxPoint x="890" y="330" as="targetPoint" />
            <Array as="points">
              <mxPoint x="830" y="460" />
              <mxPoint x="830" y="400" />
            </Array>
          </mxGeometry>
        </mxCell>
        <mxCell id="32sQWci2aeUVK-o_euO9-21" value="Tidak" style="edgeLabel;html=1;align=center;verticalAlign=middle;resizable=0;points=[];" vertex="1" connectable="0" parent="32sQWci2aeUVK-o_euO9-20">
          <mxGeometry x="0.0702" relative="1" as="geometry">
            <mxPoint as="offset" />
          </mxGeometry>
        </mxCell>
        <mxCell id="32sQWci2aeUVK-o_euO9-8" value="Sistem" style="swimlane;html=1;startSize=20;horizontal=0;" vertex="1" parent="32sQWci2aeUVK-o_euO9-2">
          <mxGeometry x="20" y="260" width="1210" height="220" as="geometry" />
        </mxCell>
        <mxCell id="32sQWci2aeUVK-o_euO9-9" value="" style="edgeStyle=orthogonalEdgeStyle;rounded=0;orthogonalLoop=1;jettySize=auto;html=1;" edge="1" parent="32sQWci2aeUVK-o_euO9-8" source="32sQWci2aeUVK-o_euO9-10" target="32sQWci2aeUVK-o_euO9-13">
          <mxGeometry relative="1" as="geometry" />
        </mxCell>
        <mxCell id="32sQWci2aeUVK-o_euO9-10" value="Sistem memvalidasi data user role" style="rounded=0;whiteSpace=wrap;html=1;fillColor=#e1d5e7;strokeColor=#9673a6;" vertex="1" parent="32sQWci2aeUVK-o_euO9-8">
          <mxGeometry x="540" y="70" width="120" height="60" as="geometry" />
        </mxCell>
        <mxCell id="32sQWci2aeUVK-o_euO9-11" value="" style="edgeStyle=orthogonalEdgeStyle;rounded=0;orthogonalLoop=1;jettySize=auto;html=1;exitX=1;exitY=0.5;exitDx=0;exitDy=0;" edge="1" parent="32sQWci2aeUVK-o_euO9-8" source="32sQWci2aeUVK-o_euO9-13" target="32sQWci2aeUVK-o_euO9-14">
          <mxGeometry relative="1" as="geometry">
            <mxPoint x="775" y="60" as="sourcePoint" />
          </mxGeometry>
        </mxCell>
        <mxCell id="32sQWci2aeUVK-o_euO9-12" value="Tidak" style="edgeLabel;html=1;align=center;verticalAlign=middle;resizable=0;points=[];" vertex="1" connectable="0" parent="32sQWci2aeUVK-o_euO9-11">
          <mxGeometry x="-0.298" y="-1" relative="1" as="geometry">
            <mxPoint y="-9" as="offset" />
          </mxGeometry>
        </mxCell>
        <mxCell id="32sQWci2aeUVK-o_euO9-13" value="Apakah &lt;br&gt;Valid?" style="rhombus;whiteSpace=wrap;html=1;fillColor=#dae8fc;strokeColor=#6c8ebf;" vertex="1" parent="32sQWci2aeUVK-o_euO9-8">
          <mxGeometry x="710" y="60" width="80" height="80" as="geometry" />
        </mxCell>
        <mxCell id="32sQWci2aeUVK-o_euO9-14" value="Menampilkan Info&lt;br&gt;ada field yang kosong" style="shape=parallelogram;perimeter=parallelogramPerimeter;whiteSpace=wrap;html=1;fixedSize=1;fillColor=#f8cecc;strokeColor=#b85450;" vertex="1" parent="32sQWci2aeUVK-o_euO9-8">
          <mxGeometry x="835" y="30" width="160" height="60" as="geometry" />
        </mxCell>
        <mxCell id="32sQWci2aeUVK-o_euO9-15" value="Menampilkan Info&lt;br&gt;Deskripsi sudah Pernah&lt;br&gt;diinputkan" style="shape=parallelogram;perimeter=parallelogramPerimeter;whiteSpace=wrap;html=1;fixedSize=1;fillColor=#f8cecc;strokeColor=#b85450;" vertex="1" parent="32sQWci2aeUVK-o_euO9-8">
          <mxGeometry x="830" y="110" width="160" height="60" as="geometry" />
        </mxCell>
        <mxCell id="fUxP4xnm1Di0LJo4FKwc-2" value="Menampilkan halaman Entry Or Update&amp;nbsp;" style="shape=parallelogram;perimeter=parallelogramPerimeter;whiteSpace=wrap;html=1;fixedSize=1;fillColor=#d5e8d4;strokeColor=#82b366;" vertex="1" parent="32sQWci2aeUVK-o_euO9-8">
          <mxGeometry x="295" y="70" width="150" height="80" as="geometry" />
        </mxCell>
        <mxCell id="32sQWci2aeUVK-o_euO9-22" value="Database" style="swimlane;html=1;startSize=20;horizontal=0;" vertex="1" parent="32sQWci2aeUVK-o_euO9-2">
          <mxGeometry x="20" y="480" width="1210" height="200" as="geometry" />
        </mxCell>
        <mxCell id="32sQWci2aeUVK-o_euO9-23" value="" style="edgeStyle=orthogonalEdgeStyle;rounded=0;orthogonalLoop=1;jettySize=auto;html=1;" edge="1" parent="32sQWci2aeUVK-o_euO9-22" source="32sQWci2aeUVK-o_euO9-24" target="32sQWci2aeUVK-o_euO9-25">
          <mxGeometry relative="1" as="geometry" />
        </mxCell>
        <mxCell id="32sQWci2aeUVK-o_euO9-24" value="Cek Deskripsi" style="rounded=0;whiteSpace=wrap;html=1;fillColor=#e1d5e7;strokeColor=#9673a6;" vertex="1" parent="32sQWci2aeUVK-o_euO9-22">
          <mxGeometry x="540" y="70" width="120" height="60" as="geometry" />
        </mxCell>
        <mxCell id="32sQWci2aeUVK-o_euO9-25" value="Apakah Cocok?" style="rhombus;whiteSpace=wrap;html=1;fillColor=#dae8fc;strokeColor=#6c8ebf;" vertex="1" parent="32sQWci2aeUVK-o_euO9-22">
          <mxGeometry x="770" y="60" width="80" height="80" as="geometry" />
        </mxCell>
        <mxCell id="KCNRwQGQ5qcpqjG1OJTr-0" value="Save/Update Data&amp;nbsp;" style="rounded=0;whiteSpace=wrap;html=1;fillColor=#e1d5e7;strokeColor=#9673a6;" vertex="1" parent="32sQWci2aeUVK-o_euO9-22">
          <mxGeometry x="950" y="70" width="120" height="60" as="geometry" />
        </mxCell>
        <mxCell id="32sQWci2aeUVK-o_euO9-26" value="" style="endArrow=classic;html=1;rounded=0;exitX=1;exitY=0.5;exitDx=0;exitDy=0;entryX=0;entryY=0.5;entryDx=0;entryDy=0;" edge="1" parent="32sQWci2aeUVK-o_euO9-22" source="32sQWci2aeUVK-o_euO9-25" target="KCNRwQGQ5qcpqjG1OJTr-0">
          <mxGeometry width="50" height="50" relative="1" as="geometry">
            <mxPoint x="950" y="-100" as="sourcePoint" />
            <mxPoint x="1000" y="-150" as="targetPoint" />
            <Array as="points" />
          </mxGeometry>
        </mxCell>
        <mxCell id="32sQWci2aeUVK-o_euO9-27" value="Ya" style="edgeLabel;html=1;align=center;verticalAlign=middle;resizable=0;points=[];" vertex="1" connectable="0" parent="32sQWci2aeUVK-o_euO9-26">
          <mxGeometry x="-0.2424" y="-2" relative="1" as="geometry">
            <mxPoint as="offset" />
          </mxGeometry>
        </mxCell>
        <mxCell id="fUxP4xnm1Di0LJo4FKwc-6" value="" style="endArrow=classic;html=1;rounded=0;exitX=0;exitY=0.5;exitDx=0;exitDy=0;entryX=0;entryY=0.5;entryDx=0;entryDy=0;" edge="1" parent="32sQWci2aeUVK-o_euO9-2" source="fUxP4xnm1Di0LJo4FKwc-0" target="fUxP4xnm1Di0LJo4FKwc-2">
          <mxGeometry width="50" height="50" relative="1" as="geometry">
            <mxPoint x="350" y="165" as="sourcePoint" />
            <mxPoint x="350" y="280" as="targetPoint" />
            <Array as="points">
              <mxPoint x="240" y="165" />
              <mxPoint x="240" y="240" />
              <mxPoint x="240" y="370" />
            </Array>
          </mxGeometry>
        </mxCell>
        <mxCell id="fUxP4xnm1Di0LJo4FKwc-7" value="New Entry" style="edgeLabel;html=1;align=center;verticalAlign=middle;resizable=0;points=[];" vertex="1" connectable="0" parent="fUxP4xnm1Di0LJo4FKwc-6">
          <mxGeometry x="0.1378" relative="1" as="geometry">
            <mxPoint x="-1" as="offset" />
          </mxGeometry>
        </mxCell>
        <mxCell id="fUxP4xnm1Di0LJo4FKwc-8" value="" style="endArrow=classic;html=1;rounded=0;exitX=0.5;exitY=1;exitDx=0;exitDy=0;entryX=0.5;entryY=0;entryDx=0;entryDy=0;" edge="1" parent="32sQWci2aeUVK-o_euO9-2" source="fUxP4xnm1Di0LJo4FKwc-0" target="fUxP4xnm1Di0LJo4FKwc-2">
          <mxGeometry width="50" height="50" relative="1" as="geometry">
            <mxPoint x="360" y="175" as="sourcePoint" />
            <mxPoint x="155" y="340" as="targetPoint" />
            <Array as="points">
              <mxPoint x="390" y="250" />
              <mxPoint x="390" y="280" />
            </Array>
          </mxGeometry>
        </mxCell>
        <mxCell id="fUxP4xnm1Di0LJo4FKwc-9" value="Update" style="edgeLabel;html=1;align=center;verticalAlign=middle;resizable=0;points=[];" vertex="1" connectable="0" parent="fUxP4xnm1Di0LJo4FKwc-8">
          <mxGeometry x="0.1378" relative="1" as="geometry">
            <mxPoint x="-1" as="offset" />
          </mxGeometry>
        </mxCell>
        <mxCell id="fUxP4xnm1Di0LJo4FKwc-11" value="" style="endArrow=classic;html=1;rounded=0;exitX=1;exitY=0.5;exitDx=0;exitDy=0;entryX=0;entryY=0.5;entryDx=0;entryDy=0;" edge="1" parent="32sQWci2aeUVK-o_euO9-2" source="fUxP4xnm1Di0LJo4FKwc-2" target="fUxP4xnm1Di0LJo4FKwc-5">
          <mxGeometry width="50" height="50" relative="1" as="geometry">
            <mxPoint x="630" y="400" as="sourcePoint" />
            <mxPoint x="680" y="350" as="targetPoint" />
            <Array as="points">
              <mxPoint x="500" y="370" />
              <mxPoint x="500" y="150" />
            </Array>
          </mxGeometry>
        </mxCell>
        <mxCell id="fUxP4xnm1Di0LJo4FKwc-12" value="" style="endArrow=classic;html=1;rounded=0;exitX=0.5;exitY=1;exitDx=0;exitDy=0;entryX=0.5;entryY=0;entryDx=0;entryDy=0;" edge="1" parent="32sQWci2aeUVK-o_euO9-2" source="fUxP4xnm1Di0LJo4FKwc-5" target="32sQWci2aeUVK-o_euO9-10">
          <mxGeometry width="50" height="50" relative="1" as="geometry">
            <mxPoint x="630" y="400" as="sourcePoint" />
            <mxPoint x="680" y="350" as="targetPoint" />
            <Array as="points">
              <mxPoint x="658" y="240" />
              <mxPoint x="620" y="240" />
            </Array>
          </mxGeometry>
        </mxCell>
        <mxCell id="SK0z5Y7LurTOedyzjgcK-2" value="" style="endArrow=classic;html=1;rounded=0;entryX=0.5;entryY=1;entryDx=0;entryDy=0;exitX=1;exitY=0.5;exitDx=0;exitDy=0;" edge="1" parent="32sQWci2aeUVK-o_euO9-2" source="KCNRwQGQ5qcpqjG1OJTr-0" target="32sQWci2aeUVK-o_euO9-7">
          <mxGeometry width="50" height="50" relative="1" as="geometry">
            <mxPoint x="630" y="400" as="sourcePoint" />
            <mxPoint x="680" y="350" as="targetPoint" />
            <Array as="points">
              <mxPoint x="1170" y="580" />
            </Array>
          </mxGeometry>
        </mxCell>
      </root>
    </mxGraphModel>
  </diagram>
</mxfile>
